<?xml version="1.0" encoding="UTF-8" standalone="no"?>
<svg
   xmlns:dc="http://purl.org/dc/elements/1.1/"
   xmlns:cc="http://creativecommons.org/ns#"
   xmlns:rdf="http://www.w3.org/1999/02/22-rdf-syntax-ns#"
   xmlns:svg="http://www.w3.org/2000/svg"
   xmlns="http://www.w3.org/2000/svg"
   xmlns:xlink="http://www.w3.org/1999/xlink"
   xmlns:sodipodi="http://sodipodi.sourceforge.net/DTD/sodipodi-0.dtd"
   xmlns:inkscape="http://www.inkscape.org/namespaces/inkscape"
   id="diagram"
   class="svg-content"
   viewBox="0 0 249.61998 251.07943"
   version="1.1"
   sodipodi:docname="fig-3jm.svg"
   width="249.61998"
   height="251.07942"
   inkscape:version="0.92.2 5c3e80d, 2017-08-06">
  <metadata
     id="metadata5147">
    <rdf:RDF>
      <cc:Work
         rdf:about="">
        <dc:format>image/svg+xml</dc:format>
        <dc:type
           rdf:resource="http://purl.org/dc/dcmitype/StillImage" />
        <dc:title></dc:title>
      </cc:Work>
    </rdf:RDF>
  </metadata>
  <sodipodi:namedview
     pagecolor="#ffffff"
     bordercolor="#666666"
     borderopacity="1"
     objecttolerance="10"
     gridtolerance="10"
     guidetolerance="10"
     inkscape:pageopacity="0"
     inkscape:pageshadow="2"
     inkscape:window-width="1792"
     inkscape:window-height="869"
     id="namedview5145"
     showgrid="false"
     fit-margin-top="0"
     fit-margin-left="0"
     fit-margin-right="0"
     fit-margin-bottom="0"
     inkscape:zoom="1.0277846"
     inkscape:cx="229.74561"
     inkscape:cy="103.94081"
     inkscape:window-x="112"
     inkscape:window-y="228"
     inkscape:window-maximized="0"
     inkscape:current-layer="diagram" />
  <defs
     id="defs5060">
    <symbol
       id="arrowhead"
       viewBox="0 0 100 100">
      <path
         d="M 100,50 20,10 c -24,-12 0,24 0,40 0,16 -24,52 0,40 z"
         id="path5051"
         inkscape:connector-curvature="0" />
    </symbol>
    <symbol
       id="noarrowhead"
       viewBox="0 0 100 100">
      <circle
         cx="50"
         cy="50"
         r="50"
         id="circle5054" />
    </symbol>
    <symbol
       id="clockwise"
       viewBox="-19 -19 38 38">
      <path
         aria-label="circular arrow"
         transform="scale(1,-1)"
         d="m 8.2471012,8.29503 q -1.7783211,1.70257 -3.7835148,2.55385 -2.0430737,0.87164 -4.464458,0.87164 -2.5159619,0 -4.4645,-0.87164 -2.1941861,-0.98571 -3.7835149,-2.55385 -1.6838245,-1.6822 -2.5917195,-3.82058 -0.870017,-2.11802 -0.870017,-4.52116 0,-2.32574 0.870017,-4.4458 0.907895,-2.13839 2.5917195,-3.82058 1.6646814,-1.64553 3.7835149,-2.55384 2.0430736,-0.87165 4.46449851992,-0.87165 2.51596198008,0 4.46445798008,0.87165 2.1941862,0.98569 3.7835148,2.55384 1.6838263,1.68219 2.5917253,3.82058 0.681025,1.6659 0.832545,3.48251 l 4.407719,-4.40751 2.269946,2.26873 -7.45339,7.45338 H 9.1930817 L 1.7775313,-3.14878 4.0474772,-5.41751 8.4362974,-0.99085 Q 8.3018846,-2.18427 7.8689127,-3.25958 7.2445045,-4.79106 5.9960953,-6.04151 4.8609186,-7.15755 3.2341172,-7.89477 q -1.399929,-0.6232 -3.19698643,-0.6232 -1.79705757,0 -3.27274667,0.6232 -1.5510414,0.66391 -2.761978,1.85326 -1.2105296,1.20971 -1.872817,2.78193 -0.6244085,1.53149 -0.6244085,3.21777 0,1.75959 0.6244085,3.29108 0.6244083,1.53148 1.872817,2.78192 1.1351766,1.11604 2.761978,1.85327 1.3999291,0.62319 3.19698663,0.62319 1.79705757,0 3.27274647,-0.62319 1.5510416,-0.66392 2.7619781,-1.85327 z"
         id="path5057"
         inkscape:connector-curvature="0" />
    </symbol>
  </defs>
  <path
     inkscape:connector-curvature="0"
     id="path5064"
     style="fill:none;stroke:#ffffff;stroke-width:10;stroke-linecap:round;stroke-opacity:0.7"
     class="bg"
     d="m 23.292611,235.60812 99.999999,-100" />
  <path
     inkscape:connector-curvature="0"
     id="path5066"
     style="fill:none;stroke:#051308;stroke-width:2"
     class="fg"
     d="m 23.292611,235.60812 99.999999,-100" />
  <path
     inkscape:connector-curvature="0"
     id="path5068"
     style="fill:none;stroke:none"
     class="pith"
     d="m 23.292611,235.60812 99.999999,-100" />
  <path
     inkscape:connector-curvature="0"
     id="path5070"
     style="fill:none;stroke-width:25;stroke-linecap:round;stroke-opacity:0"
     class="hit"
     d="m 23.292611,235.60812 99.999999,-100" />
  <text
     id="text5072"
     style="font-size:large;text-anchor:middle;fill:#051308"
     class="label"
     x="63.966377"
     y="178.72897">1</text>
  <path
     inkscape:connector-curvature="0"
     id="path5078"
     style="fill:none;stroke:#ffffff;stroke-width:10;stroke-linecap:round;stroke-opacity:0.7"
     class="bg"
     d="m 223.29261,235.60812 -100,-100" />
  <path
     inkscape:connector-curvature="0"
     id="path5080"
     style="fill:none;stroke:#051308;stroke-width:2"
     class="fg"
     d="m 223.29261,235.60812 -100,-100" />
  <path
     inkscape:connector-curvature="0"
     id="path5082"
     style="fill:none;stroke:none"
     class="pith"
     d="m 223.29261,235.60812 -100,-100" />
  <path
     inkscape:connector-curvature="0"
     id="path5084"
     style="fill:none;stroke-width:25;stroke-linecap:round;stroke-opacity:0"
     class="hit"
     d="m 223.29261,235.60812 -100,-100" />
  <text
     id="text5086"
     style="font-size:large;text-anchor:middle;fill:#051308"
     class="label"
     x="185.72787"
     y="178.74298">2</text>
  <path
     inkscape:connector-curvature="0"
     id="path5092"
     style="fill:none;stroke:#ffffff;stroke-width:10;stroke-linecap:round;stroke-opacity:0.7"
     class="bg"
     d="M 123.29261,15.608122 V 135.60812" />
  <path
     inkscape:connector-curvature="0"
     id="path5094"
     style="fill:none;stroke:#051308;stroke-width:2"
     class="fg"
     d="M 123.29261,15.608122 V 135.60812" />
  <path
     inkscape:connector-curvature="0"
     id="path5096"
     style="fill:none;stroke:none"
     class="pith"
     d="M 123.29261,15.608122 V 135.60812" />
  <path
     inkscape:connector-curvature="0"
     id="path5098"
     style="fill:none;stroke-width:25;stroke-linecap:round;stroke-opacity:0"
     class="hit"
     d="M 123.29261,15.608122 V 135.60812" />
  <text
     id="text5100"
     style="font-size:large;text-anchor:middle;fill:#051308"
     class="label"
     x="137.29262"
     y="75.608124">3</text>
  <circle
     cy="235.60812"
     cx="23.292612"
     id="circle5107"
     style="fill:#000000;fill-opacity:0.3"
     class="fg "
     r="8" />
  <circle
     cy="235.60812"
     cx="23.292612"
     id="circle5109"
     style="fill:#ffffff;fill-opacity:0"
     class="hit"
     r="15" />
  <circle
     cy="235.60812"
     cx="223.29262"
     id="circle5115"
     style="fill:#000000;fill-opacity:0.3"
     class="fg "
     r="8" />
  <circle
     cy="235.60812"
     cx="223.29262"
     id="circle5117"
     style="fill:#ffffff;fill-opacity:0"
     class="hit"
     r="15" />
  <circle
     cy="15.608122"
     cx="123.29262"
     id="circle5123"
     style="fill:#000000;fill-opacity:0.3"
     class="fg "
     r="8" />
  <circle
     cy="15.608122"
     cx="123.29262"
     id="circle5125"
     style="fill:#ffffff;fill-opacity:0"
     class="hit"
     r="15" />
  <circle
     cy="135.60812"
     cx="123.29262"
     id="circle5131"
     style="fill:#ffffff;fill-opacity:0"
     class="bg "
     r="20" />
  <circle
     cy="135.60812"
     cx="123.29262"
     id="circle5133"
     style="fill:#21b0ae"
     class="fg "
     r="18" />
  <circle
     cy="135.60812"
     cx="123.29262"
     id="circle5135"
     style="fill:#ffffff;fill-opacity:0"
     class="hit "
     r="25" />
  <use
     id="use5137"
     xlink:href="#clockwise"
     style="fill:#ffffff"
     class="arrow "
     x="-15"
     y="-15"
     width="30"
     height="30"
     transform="translate(123.29261,135.60812)" />
  <text
     y="240.61333"
     x="8.1325922"
     class="label"
     style="font-size:large;text-anchor:middle;fill:#051308"
     id="text5072-2">1</text>
  <text
     y="20.456148"
     x="105.82735"
     class="label"
     style="font-size:large;text-anchor:middle;fill:#051308"
     id="text5072-2-0">3</text>
  <text
     y="239.75334"
     x="241.01762"
     class="label"
     style="font-size:large;text-anchor:middle;fill:#051308"
     id="text5072-2-6">2</text>
</svg>
