<?xml version="1.0" encoding="UTF-8" standalone="no"?>
<svg
   xmlns:dc="http://purl.org/dc/elements/1.1/"
   xmlns:cc="http://creativecommons.org/ns#"
   xmlns:rdf="http://www.w3.org/1999/02/22-rdf-syntax-ns#"
   xmlns:svg="http://www.w3.org/2000/svg"
   xmlns="http://www.w3.org/2000/svg"
   xmlns:xlink="http://www.w3.org/1999/xlink"
   xmlns:sodipodi="http://sodipodi.sourceforge.net/DTD/sodipodi-0.dtd"
   xmlns:inkscape="http://www.inkscape.org/namespaces/inkscape"
   id="diagram"
   class="svg-content"
   viewBox="0 0 367.1402 125.28363"
   version="1.1"
   sodipodi:docname="fig-arrow-cancellation.svg"
   width="367.1402"
   height="125.28362"
   inkscape:version="0.92.2 5c3e80d, 2017-08-06">
  <metadata
     id="metadata5469">
    <rdf:RDF>
      <cc:Work
         rdf:about="">
        <dc:format>image/svg+xml</dc:format>
        <dc:type
           rdf:resource="http://purl.org/dc/dcmitype/StillImage" />
        <dc:title></dc:title>
      </cc:Work>
    </rdf:RDF>
  </metadata>
  <sodipodi:namedview
     pagecolor="#ffffff"
     bordercolor="#666666"
     borderopacity="1"
     objecttolerance="10"
     gridtolerance="10"
     guidetolerance="10"
     inkscape:pageopacity="0"
     inkscape:pageshadow="2"
     inkscape:window-width="1914"
     inkscape:window-height="1051"
     id="namedview5467"
     showgrid="false"
     fit-margin-top="0"
     fit-margin-left="0"
     fit-margin-right="0"
     fit-margin-bottom="0"
     inkscape:zoom="1.9770561"
     inkscape:cx="92.927018"
     inkscape:cy="103.37065"
     inkscape:window-x="0"
     inkscape:window-y="23"
     inkscape:window-maximized="0"
     inkscape:current-layer="diagram-main"
     showguides="false" />
  <defs
     id="defs5364">
    <symbol
       id="arrowhead"
       viewBox="0 0 100 100">
      <path
         d="M 100,50 20,10 c -24,-12 0,24 0,40 0,16 -24,52 0,40 z"
         id="path5355"
         inkscape:connector-curvature="0" />
    </symbol>
    <symbol
       id="noarrowhead"
       viewBox="0 0 100 100">
      <circle
         cx="50"
         cy="50"
         r="50"
         id="circle5358" />
    </symbol>
    <symbol
       id="clockwise"
       viewBox="-19 -19 38 38">
      <path
         aria-label="circular arrow"
         transform="scale(1,-1)"
         d="m 8.2471012,8.29503 q -1.7783211,1.70257 -3.7835148,2.55385 -2.0430737,0.87164 -4.464458,0.87164 -2.5159619,0 -4.4645,-0.87164 -2.1941861,-0.98571 -3.7835149,-2.55385 -1.6838245,-1.6822 -2.5917195,-3.82058 -0.870017,-2.11802 -0.870017,-4.52116 0,-2.32574 0.870017,-4.4458 0.907895,-2.13839 2.5917195,-3.82058 1.6646814,-1.64553 3.7835149,-2.55384 2.0430736,-0.87165 4.46449851992,-0.87165 2.51596198008,0 4.46445798008,0.87165 2.1941862,0.98569 3.7835148,2.55384 1.6838263,1.68219 2.5917253,3.82058 0.681025,1.6659 0.832545,3.48251 l 4.407719,-4.40751 2.269946,2.26873 -7.45339,7.45338 H 9.1930817 L 1.7775313,-3.14878 4.0474772,-5.41751 8.4362974,-0.99085 Q 8.3018846,-2.18427 7.8689127,-3.25958 7.2445045,-4.79106 5.9960953,-6.04151 4.8609186,-7.15755 3.2341172,-7.89477 q -1.399929,-0.6232 -3.19698643,-0.6232 -1.79705757,0 -3.27274667,0.6232 -1.5510414,0.66391 -2.761978,1.85326 -1.2105296,1.20971 -1.872817,2.78193 -0.6244085,1.53149 -0.6244085,3.21777 0,1.75959 0.6244085,3.29108 0.6244083,1.53148 1.872817,2.78192 1.1351766,1.11604 2.761978,1.85327 1.3999291,0.62319 3.19698663,0.62319 1.79705757,0 3.27274647,-0.62319 1.5510416,-0.66392 2.7619781,-1.85327 z"
         id="path5361"
         inkscape:connector-curvature="0" />
    </symbol>
  </defs>
  <g
     id="diagram-main"
     transform="translate(-580.35626,-525.659)">
    <path
       d="M 740,550.00001 H 612.49782"
       class="fg"
       style="fill:none;stroke:#051308;stroke-width:2"
       id="path5384"
       inkscape:connector-curvature="0" />
    <text
       y="540.20251"
       x="677.35834"
       class="label"
       style="font-size:large;text-anchor:middle;fill:#051308"
       id="text5390">1</text>
    <use
       id="use5394"
       xlink:href="#arrowhead"
       class="arrowhead"
       x="-15"
       y="-7.5"
       width="15"
       height="15"
       transform="matrix(-1,0,0,1,635.51087,550)" />
    <text
       y="573.5213"
       x="612.30328"
       class="label"
       style="font-size:large;text-anchor:middle;fill:#051308"
       id="text5376-3-7">1</text>
    <text
       y="572.87964"
       x="741.56836"
       class="label"
       style="font-size:large;text-anchor:middle;fill:#051308"
       id="text5376-3-6-5">1′</text>
    <circle
       r="8"
       class="fg "
       style="fill:#000000;fill-opacity:0.3"
       id="circle5425"
       cx="740"
       cy="550" />
    <circle
       r="8"
       class="fg "
       style="fill:#000000;fill-opacity:0.3"
       id="circle5449"
       cx="612.61499"
       cy="550" />
    <use
       id="use5394-9"
       xlink:href="#arrowhead"
       class="arrowhead"
       x="-15"
       y="-7.5"
       width="15"
       height="15"
       transform="translate(716.21672,550)" />
    <path
       d="M 918.92702,550 H 791.42484"
       class="fg"
       style="fill:none;stroke:#051308;stroke-width:2"
       id="path5384-4"
       inkscape:connector-curvature="0" />
    <text
       y="540.20251"
       x="856.28534"
       class="label"
       style="font-size:large;text-anchor:middle;fill:#051308"
       id="text5390-9">1</text>
    <text
       y="573.5213"
       x="791.23029"
       class="label"
       style="font-size:large;text-anchor:middle;fill:#051308"
       id="text5376-3-7-9">1</text>
    <text
       y="572.87964"
       x="920.49536"
       class="label"
       style="font-size:large;text-anchor:middle;fill:#051308"
       id="text5376-3-6-5-1">1′</text>
    <circle
       r="8"
       class="fg "
       style="fill:#000000;fill-opacity:0.3"
       id="circle5425-7"
       cx="918.927"
       cy="550" />
    <circle
       r="8"
       class="fg "
       style="fill:#000000;fill-opacity:0.3"
       id="circle5449-7"
       cx="791.54199"
       cy="550" />
    <text
       y="553.17804"
       x="766.47357"
       class="label"
       style="font-size:large;text-anchor:middle;fill:#051308"
       id="text5376-3-6-5-15">=</text>
    <path
       d="M 720,620 H 592.49782"
       class="fg"
       style="fill:none;stroke:#051308;stroke-width:2"
       id="path5384-9"
       inkscape:connector-curvature="0" />
    <text
       y="608.20251"
       x="657.35834"
       class="label"
       style="font-size:large;text-anchor:middle;fill:#051308"
       id="text5390-7">1</text>
    <text
       y="643.5213"
       x="592.30328"
       class="label"
       style="font-size:large;text-anchor:middle;fill:#051308"
       id="text5376-3-7-6">1</text>
    <text
       y="642.87964"
       x="721.56836"
       class="label"
       style="font-size:large;text-anchor:middle;fill:#051308"
       id="text5376-3-6-5-7">1′</text>
    <circle
       r="8"
       class="fg "
       style="fill:#000000;fill-opacity:0.3"
       id="circle5425-3"
       cx="720"
       cy="620" />
    <circle
       r="8"
       class="fg "
       style="fill:#000000;fill-opacity:0.3"
       id="circle5449-6"
       cx="592.61499"
       cy="620" />
    <use
       id="use5394-9-5"
       xlink:href="#arrowhead"
       class="arrowhead"
       x="-15"
       y="-7.5"
       width="15"
       height="15"
       transform="matrix(-1,0,0,1,649.9014,619.99999)" />
    <path
       d="M 934.92702,619.99999 H 807.42484"
       class="fg"
       style="fill:none;stroke:#051308;stroke-width:2"
       id="path5384-4-6"
       inkscape:connector-curvature="0" />
    <text
       y="608.20251"
       x="872.28534"
       class="label"
       style="font-size:large;text-anchor:middle;fill:#051308"
       id="text5390-9-3">1</text>
    <text
       y="643.5213"
       x="807.23029"
       class="label"
       style="font-size:large;text-anchor:middle;fill:#051308"
       id="text5376-3-7-9-9">1</text>
    <text
       y="642.87964"
       x="936.49536"
       class="label"
       style="font-size:large;text-anchor:middle;fill:#051308"
       id="text5376-3-6-5-1-4">1′</text>
    <circle
       r="8"
       class="fg "
       style="fill:#000000;fill-opacity:0.3"
       id="circle5425-7-8"
       cx="934.927"
       cy="620" />
    <circle
       r="8"
       class="fg "
       style="fill:#000000;fill-opacity:0.3"
       id="circle5449-7-1"
       cx="807.54199"
       cy="620" />
    <text
       y="623.17804"
       x="746.47357"
       class="label"
       style="font-size:large;text-anchor:middle;fill:#051308"
       id="text5376-3-6-5-15-2">=</text>
    <use
       id="use5394-9-5-9"
       xlink:href="#arrowhead"
       class="arrowhead"
       x="-15"
       y="-7.5"
       width="15"
       height="15"
       transform="translate(879.85906,619.99999)" />
    <text
       y="625.09509"
       x="770.91345"
       class="label"
       style="font-size:large;text-anchor:middle;fill:#051308"
       id="text5390-9-3-4">(−)</text>
    <text
       y="614.79156"
       x="785.64819"
       class="label"
       style="font-size:11.18702602px;text-anchor:middle;fill:#051308;stroke-width:0.99999994"
       id="text5390-9-3-4-1">2<tspan
   style="font-style:italic;stroke-width:0.99999994"
   id="tspan95003">j</tspan>
<tspan
   style="font-size:7.27156639px;baseline-shift:sub;stroke-width:0.99999994"
   id="tspan95009">1</tspan>
</text>
  </g>
  <g
     id="diagram-track"
     transform="translate(-580.35626,-525.659)" />
</svg>
